<mxfile host="Electron" modified="2024-05-01T22:26:49.824Z" agent="Mozilla/5.0 (Windows NT 10.0; Win64; x64) AppleWebKit/537.36 (KHTML, like Gecko) draw.io/22.0.3 Chrome/114.0.5735.289 Electron/25.8.4 Safari/537.36" etag="ttKpGa7-392X7t-i5n6R" version="22.0.3" type="device">
  <diagram name="Página-1" id="tCQroXiteJgnJ_uBwcfq">
    <mxGraphModel dx="863" dy="505" grid="1" gridSize="10" guides="1" tooltips="1" connect="1" arrows="1" fold="1" page="1" pageScale="1" pageWidth="827" pageHeight="1169" math="0" shadow="0">
      <root>
        <mxCell id="0" />
        <mxCell id="1" parent="0" />
        <mxCell id="19CYeCPQ2rbaRQj9pgyO-1" value="Psicólogo" style="shape=umlActor;verticalLabelPosition=bottom;verticalAlign=top;html=1;outlineConnect=0;" parent="1" vertex="1">
          <mxGeometry x="80" y="240" width="30" height="60" as="geometry" />
        </mxCell>
        <mxCell id="19CYeCPQ2rbaRQj9pgyO-2" value="" style="rounded=0;whiteSpace=wrap;html=1;" parent="1" vertex="1">
          <mxGeometry x="150" y="20" width="480" height="780" as="geometry" />
        </mxCell>
        <mxCell id="19CYeCPQ2rbaRQj9pgyO-3" value="Crear un cuento" style="ellipse;whiteSpace=wrap;html=1;" parent="1" vertex="1">
          <mxGeometry x="210" y="150" width="120" height="80" as="geometry" />
        </mxCell>
        <mxCell id="kS9Pxdg14ypnVErlCJ3A-1" value="Elegir título y tema" style="ellipse;whiteSpace=wrap;html=1;" vertex="1" parent="1">
          <mxGeometry x="370" y="80" width="120" height="80" as="geometry" />
        </mxCell>
        <mxCell id="kS9Pxdg14ypnVErlCJ3A-2" value="Ingresar al sistema" style="ellipse;whiteSpace=wrap;html=1;" vertex="1" parent="1">
          <mxGeometry x="480" y="180" width="120" height="80" as="geometry" />
        </mxCell>
        <mxCell id="kS9Pxdg14ypnVErlCJ3A-4" value="" style="endArrow=classic;html=1;rounded=0;dashed=1;" edge="1" parent="1" source="19CYeCPQ2rbaRQj9pgyO-3" target="kS9Pxdg14ypnVErlCJ3A-1">
          <mxGeometry relative="1" as="geometry">
            <mxPoint x="210" y="330" as="sourcePoint" />
            <mxPoint x="370" y="330" as="targetPoint" />
          </mxGeometry>
        </mxCell>
        <mxCell id="kS9Pxdg14ypnVErlCJ3A-5" value="&amp;lt;&amp;lt;include&amp;gt;&amp;gt;" style="edgeLabel;resizable=0;html=1;align=center;verticalAlign=middle;" connectable="0" vertex="1" parent="kS9Pxdg14ypnVErlCJ3A-4">
          <mxGeometry relative="1" as="geometry" />
        </mxCell>
        <mxCell id="kS9Pxdg14ypnVErlCJ3A-8" value="" style="endArrow=classic;html=1;rounded=0;dashed=1;entryX=0.5;entryY=0;entryDx=0;entryDy=0;" edge="1" parent="1" source="kS9Pxdg14ypnVErlCJ3A-1" target="kS9Pxdg14ypnVErlCJ3A-2">
          <mxGeometry relative="1" as="geometry">
            <mxPoint x="330" y="178" as="sourcePoint" />
            <mxPoint x="390" y="152" as="targetPoint" />
          </mxGeometry>
        </mxCell>
        <mxCell id="kS9Pxdg14ypnVErlCJ3A-9" value="&amp;lt;&amp;lt;include&amp;gt;&amp;gt;" style="edgeLabel;resizable=0;html=1;align=center;verticalAlign=middle;" connectable="0" vertex="1" parent="kS9Pxdg14ypnVErlCJ3A-8">
          <mxGeometry relative="1" as="geometry" />
        </mxCell>
        <mxCell id="kS9Pxdg14ypnVErlCJ3A-10" value="" style="endArrow=none;html=1;rounded=0;" edge="1" parent="1" source="19CYeCPQ2rbaRQj9pgyO-1">
          <mxGeometry width="50" height="50" relative="1" as="geometry">
            <mxPoint x="230" y="230" as="sourcePoint" />
            <mxPoint x="220" y="210" as="targetPoint" />
          </mxGeometry>
        </mxCell>
        <mxCell id="kS9Pxdg14ypnVErlCJ3A-11" value="Modificar contenido de un cuento" style="ellipse;whiteSpace=wrap;html=1;" vertex="1" parent="1">
          <mxGeometry x="190" y="360" width="120" height="80" as="geometry" />
        </mxCell>
        <mxCell id="kS9Pxdg14ypnVErlCJ3A-12" value="" style="endArrow=none;html=1;rounded=0;exitX=0.5;exitY=0.5;exitDx=0;exitDy=0;exitPerimeter=0;" edge="1" parent="1" source="19CYeCPQ2rbaRQj9pgyO-1" target="kS9Pxdg14ypnVErlCJ3A-11">
          <mxGeometry width="50" height="50" relative="1" as="geometry">
            <mxPoint x="230" y="230" as="sourcePoint" />
            <mxPoint x="280" y="180" as="targetPoint" />
          </mxGeometry>
        </mxCell>
        <mxCell id="kS9Pxdg14ypnVErlCJ3A-13" value="Agregar y editar texto" style="ellipse;whiteSpace=wrap;html=1;" vertex="1" parent="1">
          <mxGeometry x="360" y="280" width="80" height="50" as="geometry" />
        </mxCell>
        <mxCell id="kS9Pxdg14ypnVErlCJ3A-14" value="Agregar o cambiar imagenes" style="ellipse;whiteSpace=wrap;html=1;" vertex="1" parent="1">
          <mxGeometry x="410" y="360" width="80" height="50" as="geometry" />
        </mxCell>
        <mxCell id="kS9Pxdg14ypnVErlCJ3A-15" value="Agregar o cambiar fondo" style="ellipse;whiteSpace=wrap;html=1;" vertex="1" parent="1">
          <mxGeometry x="350" y="450" width="80" height="50" as="geometry" />
        </mxCell>
        <mxCell id="kS9Pxdg14ypnVErlCJ3A-16" value="Agregar o cambiar voz" style="ellipse;whiteSpace=wrap;html=1;" vertex="1" parent="1">
          <mxGeometry x="250" y="500" width="80" height="50" as="geometry" />
        </mxCell>
        <mxCell id="kS9Pxdg14ypnVErlCJ3A-17" value="" style="endArrow=classic;html=1;rounded=0;dashed=1;entryX=1;entryY=0;entryDx=0;entryDy=0;exitX=0.15;exitY=0.764;exitDx=0;exitDy=0;exitPerimeter=0;" edge="1" parent="1" source="kS9Pxdg14ypnVErlCJ3A-13" target="kS9Pxdg14ypnVErlCJ3A-11">
          <mxGeometry relative="1" as="geometry">
            <mxPoint x="486" y="155" as="sourcePoint" />
            <mxPoint x="550" y="190" as="targetPoint" />
          </mxGeometry>
        </mxCell>
        <mxCell id="kS9Pxdg14ypnVErlCJ3A-18" value="&amp;lt;&amp;lt;extend&amp;gt;&amp;gt;" style="edgeLabel;resizable=0;html=1;align=center;verticalAlign=middle;" connectable="0" vertex="1" parent="kS9Pxdg14ypnVErlCJ3A-17">
          <mxGeometry relative="1" as="geometry" />
        </mxCell>
        <mxCell id="kS9Pxdg14ypnVErlCJ3A-20" value="" style="endArrow=classic;html=1;rounded=0;dashed=1;entryX=1;entryY=0.5;entryDx=0;entryDy=0;exitX=0;exitY=0.5;exitDx=0;exitDy=0;" edge="1" parent="1" source="kS9Pxdg14ypnVErlCJ3A-14" target="kS9Pxdg14ypnVErlCJ3A-11">
          <mxGeometry relative="1" as="geometry">
            <mxPoint x="372" y="338" as="sourcePoint" />
            <mxPoint x="302" y="382" as="targetPoint" />
          </mxGeometry>
        </mxCell>
        <mxCell id="kS9Pxdg14ypnVErlCJ3A-21" value="&amp;lt;&amp;lt;extend&amp;gt;&amp;gt;" style="edgeLabel;resizable=0;html=1;align=center;verticalAlign=middle;" connectable="0" vertex="1" parent="kS9Pxdg14ypnVErlCJ3A-20">
          <mxGeometry relative="1" as="geometry" />
        </mxCell>
        <mxCell id="kS9Pxdg14ypnVErlCJ3A-22" value="" style="endArrow=classic;html=1;rounded=0;dashed=1;entryX=1;entryY=1;entryDx=0;entryDy=0;exitX=0;exitY=0;exitDx=0;exitDy=0;" edge="1" parent="1" source="kS9Pxdg14ypnVErlCJ3A-15" target="kS9Pxdg14ypnVErlCJ3A-11">
          <mxGeometry relative="1" as="geometry">
            <mxPoint x="410" y="395" as="sourcePoint" />
            <mxPoint x="320" y="410" as="targetPoint" />
          </mxGeometry>
        </mxCell>
        <mxCell id="kS9Pxdg14ypnVErlCJ3A-23" value="&amp;lt;&amp;lt;extend&amp;gt;&amp;gt;" style="edgeLabel;resizable=0;html=1;align=center;verticalAlign=middle;" connectable="0" vertex="1" parent="kS9Pxdg14ypnVErlCJ3A-22">
          <mxGeometry relative="1" as="geometry" />
        </mxCell>
        <mxCell id="kS9Pxdg14ypnVErlCJ3A-24" value="" style="endArrow=classic;html=1;rounded=0;dashed=1;entryX=0.5;entryY=1;entryDx=0;entryDy=0;" edge="1" parent="1" source="kS9Pxdg14ypnVErlCJ3A-16" target="kS9Pxdg14ypnVErlCJ3A-11">
          <mxGeometry relative="1" as="geometry">
            <mxPoint x="420" y="405" as="sourcePoint" />
            <mxPoint x="330" y="420" as="targetPoint" />
          </mxGeometry>
        </mxCell>
        <mxCell id="kS9Pxdg14ypnVErlCJ3A-25" value="&amp;lt;&amp;lt;extend&amp;gt;&amp;gt;" style="edgeLabel;resizable=0;html=1;align=center;verticalAlign=middle;" connectable="0" vertex="1" parent="kS9Pxdg14ypnVErlCJ3A-24">
          <mxGeometry relative="1" as="geometry" />
        </mxCell>
      </root>
    </mxGraphModel>
  </diagram>
</mxfile>
